<svg id="Layer_1" data-name="Layer 1" xmlns="http://www.w3.org/2000/svg" xmlns:xlink="http://www.w3.org/1999/xlink" viewBox="0 0 59.92 69.06"><defs><style>.cls-1{fill:none;}.cls-2{clip-path:url(#clip-path);}.cls-3{fill:#dcd7fb;}.cls-4{fill:#ddd7fa;}.cls-5{fill:#ddd7f9;}.cls-6{fill:#ded6f8;}.cls-7{fill:#dfd6f7;}.cls-8{fill:#dfd6f6;}.cls-9{fill:#e0d6f5;}.cls-10{fill:#e1d6f4;}.cls-11{fill:#e1d5f3;}.cls-12{fill:#e2d5f2;}.cls-13{fill:#e3d5f1;}.cls-14{fill:#e3d5f0;}.cls-15{fill:#e4d5ef;}.cls-16{fill:#e5d4ee;}.cls-17{fill:#e5d4ed;}.cls-18{fill:#e6d4ec;}.cls-19{fill:#e7d4eb;}.cls-20{fill:#e7d4ea;}.cls-21{fill:#e8d3e9;}.cls-22{fill:#e9d3e8;}.cls-23{fill:#e9d3e6;}.cls-24{fill:#ead3e5;}.cls-25{fill:#ebd2e4;}.cls-26{fill:#ebd2e3;}.cls-27{fill:#ecd2e2;}.cls-28{fill:#edd2e1;}.cls-29{fill:#edd2e0;}.cls-30{fill:#eed1df;}.cls-31{fill:#efd1de;}.cls-32{fill:#efd1dd;}.cls-33{fill:#f0d1dc;}.cls-34{fill:#f1d1db;}.cls-35{fill:#f1d0da;}.cls-36{fill:#f2d0d9;}.cls-37{fill:#f3d0d8;}.cls-38{fill:#f3d0d7;}.cls-39{fill:#f4d0d6;}.cls-40{fill:#f5cfd5;}.cls-41{fill:#f5cfd4;}.cls-42{fill:#f6cfd3;}.cls-43{fill:#fff;}</style><clipPath id="clip-path"><path class="cls-1" d="M42.15,21.42l-1.42,7c-.22,1.09-.44,2.17-.66,3.26a78.36,78.36,0,0,1-2.83,11.19c-.43,1.18-.91,2.34-1.29,3.53-1.46,4.57-1.36,9.41-1.29,14.24a22.93,22.93,0,0,1-3,.27,23.84,23.84,0,0,1-5.58-.51h0l0-.14c0-1.3.06-2.6.08-3.91l0-1.19C26.31,48,24,41.44,22.7,34.48c-.79-4.25-1.57-8.47-2.46-12.66-.7-3.31-1.48-6.61-2.38-9.89a1.84,1.84,0,0,1,.07-1.63l.12-.12a2.22,2.22,0,0,1,.68-.36l3.37-1.26a1,1,0,0,1,.91,0,1,1,0,0,1,.36.68q1.24,5.2,2,10.51c.17,1.18.31,2.37.44,3.56.51,4.73.9,9.31,2.92,13.68a3.14,3.14,0,0,0,1.43,1.73c2.5,1.05,3.63-7.73,3.86-9,.63-3.57,1.43-7.11,2.14-10.67.46-2.31.88-4.64,1.19-7,.07-.56.27-1.25.82-1.35a1.38,1.38,0,0,1,.49,0l4.55.84a1,1,0,0,1,.66.31,1,1,0,0,1,.07.8Q43,17,42.15,21.42Z"/></clipPath></defs><title>blanco_tronco_color_2v</title><g id="_Group_" data-name="&lt;Group&gt;"><g class="cls-2"><rect class="cls-3" x="17.57" y="8.33" width="11.16" height="52.67"/><rect class="cls-3" x="28.73" y="8.33" width="0.37" height="52.67"/><rect class="cls-4" x="29.1" y="8.33" width="0.37" height="52.67"/><rect class="cls-5" x="29.47" y="8.33" width="0.37" height="52.67"/><rect class="cls-6" x="29.83" y="8.33" width="0.37" height="52.67"/><rect class="cls-7" x="30.2" y="8.33" width="0.37" height="52.67"/><rect class="cls-8" x="30.57" y="8.33" width="0.37" height="52.67"/><rect class="cls-9" x="30.93" y="8.33" width="0.37" height="52.67"/><rect class="cls-10" x="31.3" y="8.33" width="0.37" height="52.67"/><rect class="cls-11" x="31.67" y="8.33" width="0.37" height="52.67"/><rect class="cls-12" x="32.03" y="8.33" width="0.37" height="52.67"/><rect class="cls-13" x="32.4" y="8.33" width="0.37" height="52.67"/><rect class="cls-14" x="32.77" y="8.33" width="0.37" height="52.67"/><rect class="cls-15" x="33.14" y="8.33" width="0.37" height="52.67"/><rect class="cls-16" x="33.5" y="8.33" width="0.37" height="52.67"/><rect class="cls-17" x="33.87" y="8.33" width="0.37" height="52.67"/><rect class="cls-18" x="34.24" y="8.33" width="0.37" height="52.67"/><rect class="cls-19" x="34.6" y="8.33" width="0.37" height="52.67"/><rect class="cls-20" x="34.97" y="8.33" width="0.37" height="52.67"/><rect class="cls-21" x="35.34" y="8.33" width="0.37" height="52.67"/><rect class="cls-22" x="35.7" y="8.33" width="0.37" height="52.67"/><rect class="cls-23" x="36.07" y="8.33" width="0.37" height="52.67"/><rect class="cls-24" x="36.44" y="8.33" width="0.37" height="52.67"/><rect class="cls-25" x="36.81" y="8.33" width="0.37" height="52.67"/><rect class="cls-26" x="37.17" y="8.33" width="0.37" height="52.67"/><rect class="cls-27" x="37.54" y="8.33" width="0.37" height="52.67"/><rect class="cls-28" x="37.91" y="8.33" width="0.37" height="52.67"/><rect class="cls-29" x="38.27" y="8.33" width="0.37" height="52.67"/><rect class="cls-30" x="38.64" y="8.33" width="0.37" height="52.67"/><rect class="cls-31" x="39.01" y="8.33" width="0.37" height="52.67"/><rect class="cls-32" x="39.37" y="8.33" width="0.37" height="52.67"/><rect class="cls-33" x="39.74" y="8.33" width="0.37" height="52.67"/><rect class="cls-34" x="40.11" y="8.33" width="0.37" height="52.67"/><rect class="cls-35" x="40.48" y="8.33" width="0.37" height="52.67"/><rect class="cls-36" x="40.84" y="8.33" width="0.37" height="52.67"/><rect class="cls-37" x="41.21" y="8.33" width="0.37" height="52.67"/><rect class="cls-38" x="41.58" y="8.33" width="0.37" height="52.67"/><rect class="cls-39" x="41.94" y="8.33" width="0.37" height="52.67"/><rect class="cls-40" x="42.31" y="8.33" width="0.37" height="52.67"/><rect class="cls-41" x="42.68" y="8.33" width="0.37" height="52.67"/><rect class="cls-42" x="43.04" y="8.33" width="0.37" height="52.67"/><rect class="cls-42" x="43.41" y="8.33" width="0.61" height="52.67"/></g><path class="cls-43" d="M51.4,33.4a19.22,19.22,0,0,0-7.31-11.58c-.42-.31-.77-.54-1.09-.76q.84-4.14,1.67-8.29a1.71,1.71,0,0,0-.2-1.38,1.66,1.66,0,0,0-1.14-.61l-4.61-.85a1.9,1.9,0,0,0-.7,0c-.55.1-1.25.53-1.44,2-.3,2.23-.7,4.42-1,6.19a19.73,19.73,0,0,0-3.88-.24c-.58,0-1.14.06-1.71.13s-1.21.16-1.92.29-1.37.28-2,.45C25.5,15.47,24.88,12.2,24.12,9a1.75,1.75,0,0,0-.69-1.15,1.72,1.72,0,0,0-1.6,0L18.45,9.1a2.86,2.86,0,0,0-.88.47,1.55,1.55,0,0,0-.24.23,2.55,2.55,0,0,0-.22,2.32c.77,2.78,1.5,5.84,2.25,9.3l-1,.58h0c-5,2.65-8.15,6.26-9.39,10.73a22,22,0,0,0,0,10.79,23.77,23.77,0,0,0,10.19,15A21.15,21.15,0,0,0,25.3,61l.6.15a24.52,24.52,0,0,0,5.09.53h.67a23.74,23.74,0,0,0,3.11-.27,18.12,18.12,0,0,0,7.76-3,21.12,21.12,0,0,0,7.16-9.69A26.6,26.6,0,0,0,51.4,33.4ZM28.31,19.8c.68-.13,1.27-.22,1.82-.27s1-.1,1.59-.12a18.39,18.39,0,0,1,3.53.21Q35,21,34.67,22.38c-.49,2.33-1,4.75-1.41,7.14l-.08.5c-1,6.23-2,7.64-2.49,7.92a.23.23,0,0,1-.23,0,2.56,2.56,0,0,1-1-1.35c-1.86-4-2.3-8.19-2.77-12.63l-.09-.81c-.11-1-.23-1.94-.36-2.9C26.89,20.09,27.6,19.93,28.31,19.8Zm-3,39.67a19.58,19.58,0,0,1-5.44-2.27,22.23,22.23,0,0,1-9.5-14,20.5,20.5,0,0,1,0-10c1.14-4.11,4-7.31,8.64-9.79l-.36-.67.36.67L19.7,23c.78,3.75,1.5,7.58,2.19,11.29l.06.33c.4,2.16.9,4.3,1.38,6.37,1.12,4.78,2.18,9.3,2.11,14.2Zm8.53.54c-.73.09-1.48.16-2.26.18a23.29,23.29,0,0,1-4.75-.36L27,55.21c.08-5.09-1.05-9.91-2.15-14.57-.48-2.05-1-4.17-1.37-6.29L23.39,34C22.64,30,21.86,25.76,21,21.66c-.79-3.72-1.58-7-2.39-9.94-.05-.19-.21-.78,0-1a1.73,1.73,0,0,1,.45-.22l3.38-1.26.21-.07,0,.17c.82,3.41,1.48,6.92,2,10.44.17,1.17.3,2.36.44,3.53l.09.81c.48,4.56.94,8.87,2.9,13.1a3.81,3.81,0,0,0,1.83,2.12,1.74,1.74,0,0,0,1.57-.08c1.79-1,2.68-5.34,3.26-9l.08-.47c.42-2.37.92-4.77,1.4-7.09.25-1.18.49-2.37.73-3.56.38-1.91.85-4.43,1.2-7a1.49,1.49,0,0,1,.21-.7l.21,0,4.56.84.13,0c0,.07,0,.15,0,.18q-.88,4.39-1.77,8.78l-2.08,10.3a78.55,78.55,0,0,1-2.8,11.08l-.42,1.1c-.3.8-.62,1.63-.88,2.46C33.8,50.68,33.83,55.41,33.89,60Zm14.4-11.82a19.63,19.63,0,0,1-6.62,9,16.29,16.29,0,0,1-6.25,2.55c-.06-4.4-.06-8.92,1.27-13.08.25-.79.56-1.6.85-2.38L38,43.17a79.72,79.72,0,0,0,2.86-11.29l1.85-9.17.53.36A17.68,17.68,0,0,1,49.9,33.72,25.08,25.08,0,0,1,48.28,48.19Z"/></g></svg>