<svg id="Layer_1" data-name="Layer 1" xmlns="http://www.w3.org/2000/svg" xmlns:xlink="http://www.w3.org/1999/xlink" viewBox="0 0 59.92 69.06"><defs><style>.cls-1{fill:none;}.cls-2{clip-path:url(#clip-path);}.cls-3{fill:#ebd2e4;}.cls-4{fill:#ebd2e3;}.cls-5{fill:#ecd2e2;}.cls-6{fill:#edd2e1;}.cls-7{fill:#edd2e0;}.cls-8{fill:#eed1df;}.cls-9{fill:#efd1de;}.cls-10{fill:#efd1dd;}.cls-11{fill:#f0d1dc;}.cls-12{fill:#f1d1db;}.cls-13{fill:#f1d0da;}.cls-14{fill:#f2d0d9;}.cls-15{fill:#f3d0d8;}.cls-16{fill:#f3d0d7;}.cls-17{fill:#f4d0d6;}.cls-18{fill:#f5cfd5;}.cls-19{fill:#f5cfd4;}.cls-20{fill:#f6cfd3;}.cls-21{clip-path:url(#clip-path-2);}.cls-22{fill:#e1d5f3;}.cls-23{fill:#e2d5f2;}.cls-24{fill:#e3d5f1;}.cls-25{fill:#e3d5f0;}.cls-26{fill:#e4d5ef;}.cls-27{fill:#e5d4ee;}.cls-28{fill:#e5d4ed;}.cls-29{fill:#e6d4ec;}.cls-30{fill:#e7d4eb;}.cls-31{fill:#e7d4ea;}.cls-32{fill:#e8d3e9;}.cls-33{fill:#e9d3e8;}.cls-34{fill:#e9d3e6;}.cls-35{fill:#ead3e5;}.cls-36{clip-path:url(#clip-path-3);}.cls-37{fill:#dcd7fb;}.cls-38{fill:#ddd7fa;}.cls-39{fill:#ddd7f9;}.cls-40{fill:#ded6f8;}.cls-41{fill:#dfd6f7;}.cls-42{fill:#dfd6f6;}.cls-43{fill:#e0d6f5;}.cls-44{fill:#e1d6f4;}.cls-45{fill:#fff;}</style><clipPath id="clip-path"><path class="cls-1" d="M50.54,33.56a26,26,0,0,1-1.66,14.91A20.59,20.59,0,0,1,42,57.82a17.49,17.49,0,0,1-7.44,2.86c-.07-4.84-.17-9.67,1.29-14.24.37-1.19.85-2.36,1.29-3.53A78.36,78.36,0,0,0,40,31.72c.22-1.09.44-2.17.66-3.26l1.42-7c.51.32,1,.66,1.49,1A18.43,18.43,0,0,1,50.54,33.56Z"/></clipPath><clipPath id="clip-path-2"><path class="cls-1" d="M36,19c-.71,3.56-1.51,7.1-2.14,10.67-.22,1.28-1.35,10.06-3.86,9a3.14,3.14,0,0,1-1.43-1.73c-2-4.37-2.41-8.95-2.92-13.68-.13-1.19-.27-2.38-.44-3.56.92-.26,1.86-.47,2.8-.65.62-.12,1.24-.22,1.87-.28s1.09-.11,1.65-.12A19.19,19.19,0,0,1,36,19Z"/></clipPath><clipPath id="clip-path-3"><path class="cls-1" d="M22.59,34.48c1.28,7,3.61,13.5,3.5,20.72l0,1.19c0,1.3-.06,2.6-.08,3.91l0,.14a20.61,20.61,0,0,1-6.55-2.59c-5.09-3.15-8.49-8.65-9.84-14.49a21.19,21.19,0,0,1,0-10.42c1.33-4.78,4.74-8,9-10.26.53-.28,1-.57,1.54-.86C21,26,21.8,30.24,22.59,34.48Z"/></clipPath></defs><title>blanco_fondo color</title><g id="_Group_" data-name="&lt;Group&gt;"><g class="cls-2"><polygon class="cls-3" points="34.83 21.42 34.38 41.77 34.38 21.42 34.83 21.42"/><polygon class="cls-4" points="35.51 21.42 34.64 60.68 34.38 60.68 34.38 41.77 34.83 21.42 35.51 21.42"/><polygon class="cls-5" points="36.19 21.42 35.32 60.68 34.64 60.68 35.51 21.42 36.19 21.42"/><polygon class="cls-6" points="36.87 21.42 36 60.68 35.32 60.68 36.19 21.42 36.87 21.42"/><polygon class="cls-7" points="37.54 21.42 36.68 60.68 36 60.68 36.87 21.42 37.54 21.42"/><polygon class="cls-8" points="38.22 21.42 37.36 60.68 36.68 60.68 37.54 21.42 38.22 21.42"/><polygon class="cls-9" points="38.9 21.42 38.03 60.68 37.36 60.68 38.22 21.42 38.9 21.42"/><polygon class="cls-10" points="39.58 21.42 38.71 60.68 38.03 60.68 38.9 21.42 39.58 21.42"/><polygon class="cls-11" points="40.26 21.42 39.39 60.68 38.71 60.68 39.58 21.42 40.26 21.42"/><polygon class="cls-12" points="40.93 21.42 40.07 60.68 39.39 60.68 40.26 21.42 40.93 21.42"/><polygon class="cls-13" points="41.61 21.42 40.75 60.68 40.07 60.68 40.93 21.42 41.61 21.42"/><polygon class="cls-14" points="42.29 21.42 41.42 60.68 40.75 60.68 41.61 21.42 42.29 21.42"/><polygon class="cls-15" points="42.97 21.42 42.1 60.68 41.42 60.68 42.29 21.42 42.97 21.42"/><polygon class="cls-16" points="43.65 21.42 42.78 60.68 42.1 60.68 42.97 21.42 43.65 21.42"/><polygon class="cls-17" points="44.32 21.42 43.46 60.68 42.78 60.68 43.65 21.42 44.32 21.42"/><polygon class="cls-18" points="45 21.42 44.14 60.68 43.46 60.68 44.32 21.42 45 21.42"/><polygon class="cls-19" points="45.68 21.42 44.81 60.68 44.14 60.68 45 21.42 45.68 21.42"/><polygon class="cls-20" points="46.36 21.42 45.49 60.68 44.81 60.68 45.68 21.42 46.36 21.42"/><polygon class="cls-20" points="45.49 60.68 46.36 21.42 51.58 21.42 51.58 60.68 45.49 60.68"/></g><g class="cls-21"><polygon class="cls-22" points="25.4 18.58 25.25 25.42 25.25 18.58 25.4 18.58"/><polygon class="cls-23" points="26.08 18.58 25.61 39.72 25.25 39.72 25.25 25.42 25.4 18.58 26.08 18.58"/><polygon class="cls-24" points="26.76 18.58 26.29 39.72 25.61 39.72 26.08 18.58 26.76 18.58"/><polygon class="cls-25" points="27.44 18.58 26.97 39.72 26.29 39.72 26.76 18.58 27.44 18.58"/><polygon class="cls-26" points="28.11 18.58 27.65 39.72 26.97 39.72 27.44 18.58 28.11 18.58"/><polygon class="cls-27" points="28.79 18.58 28.33 39.72 27.65 39.72 28.11 18.58 28.79 18.58"/><polygon class="cls-28" points="29.47 18.58 29 39.72 28.33 39.72 28.79 18.58 29.47 18.58"/><polygon class="cls-29" points="30.15 18.58 29.68 39.72 29 39.72 29.47 18.58 30.15 18.58"/><polygon class="cls-30" points="30.83 18.58 30.36 39.72 29.68 39.72 30.15 18.58 30.83 18.58"/><polygon class="cls-31" points="31.5 18.58 31.04 39.72 30.36 39.72 30.83 18.58 31.5 18.58"/><polygon class="cls-32" points="32.18 18.58 31.72 39.72 31.04 39.72 31.5 18.58 32.18 18.58"/><polygon class="cls-33" points="32.86 18.58 32.39 39.72 31.72 39.72 32.18 18.58 32.86 18.58"/><polygon class="cls-34" points="33.54 18.58 33.07 39.72 32.39 39.72 32.86 18.58 33.54 18.58"/><polygon class="cls-35" points="34.22 18.58 33.75 39.72 33.07 39.72 33.54 18.58 34.22 18.58"/><polygon class="cls-3" points="34.89 18.58 34.43 39.72 33.75 39.72 34.22 18.58 34.89 18.58"/><polygon class="cls-4" points="35.57 18.58 35.11 39.72 34.43 39.72 34.89 18.58 35.57 18.58"/><polygon class="cls-5" points="36.03 28.42 35.78 39.72 35.11 39.72 35.57 18.58 36.03 18.58 36.03 28.42"/><polygon class="cls-6" points="35.78 39.72 36.03 28.42 36.03 39.72 35.78 39.72"/></g><g class="cls-36"><polygon class="cls-37" points="19.23 21.82 18.38 60.43 8.63 60.43 8.63 21.82 19.23 21.82"/><polygon class="cls-37" points="19.91 21.82 19.05 60.43 18.38 60.43 19.23 21.82 19.91 21.82"/><polygon class="cls-38" points="20.59 21.82 19.73 60.43 19.05 60.43 19.91 21.82 20.59 21.82"/><polygon class="cls-39" points="21.26 21.82 20.41 60.43 19.73 60.43 20.59 21.82 21.26 21.82"/><polygon class="cls-40" points="21.94 21.82 21.09 60.43 20.41 60.43 21.26 21.82 21.94 21.82"/><polygon class="cls-41" points="22.62 21.82 21.77 60.43 21.09 60.43 21.94 21.82 22.62 21.82"/><polygon class="cls-42" points="23.3 21.82 22.45 60.43 21.77 60.43 22.62 21.82 23.3 21.82"/><polygon class="cls-43" points="23.98 21.82 23.12 60.43 22.45 60.43 23.3 21.82 23.98 21.82"/><polygon class="cls-44" points="24.65 21.82 23.8 60.43 23.12 60.43 23.98 21.82 24.65 21.82"/><polygon class="cls-22" points="25.33 21.82 24.48 60.43 23.8 60.43 24.65 21.82 25.33 21.82"/><polygon class="cls-23" points="26.01 21.82 25.16 60.43 24.48 60.43 25.33 21.82 26.01 21.82"/><polygon class="cls-24" points="26.2 44.03 25.84 60.43 25.16 60.43 26.01 21.82 26.2 21.82 26.2 44.03"/><polygon class="cls-25" points="25.84 60.43 26.2 44.03 26.2 60.43 25.84 60.43"/></g><path class="cls-45" d="M51.42,33.38a19.35,19.35,0,0,0-7.36-11.66c-.38-.28-.71-.51-1-.71q.83-4.09,1.66-8.2a1.83,1.83,0,0,0-.22-1.49,1.79,1.79,0,0,0-1.23-.67L38.64,9.8a2,2,0,0,0-.75,0c-.59.11-1.34.56-1.55,2.12-.29,2.17-.68,4.31-1,6.05a19.81,19.81,0,0,0-3.77-.22c-.58,0-1.16.06-1.72.13s-1.21.16-1.93.29-1.27.26-1.9.42c-.48-3.22-1.1-6.45-1.85-9.59a1.88,1.88,0,0,0-.75-1.23,1.86,1.86,0,0,0-1.72,0L18.3,9a3,3,0,0,0-.93.5,1.72,1.72,0,0,0-.25.25,2.66,2.66,0,0,0-.24,2.44c.76,2.75,1.49,5.78,2.23,9.2l-.94.53h0c-5,2.66-8.21,6.3-9.46,10.81a22.15,22.15,0,0,0,0,10.86A23.91,23.91,0,0,0,18.93,58.61a21.39,21.39,0,0,0,6.72,2.68l.12,0a24.67,24.67,0,0,0,5.12.53h.67a24,24,0,0,0,3.12-.28,18.27,18.27,0,0,0,7.82-3,21.26,21.26,0,0,0,7.21-9.75A26.74,26.74,0,0,0,51.42,33.38ZM28.22,19.93c.67-.13,1.26-.21,1.81-.27s1-.1,1.58-.12a18.25,18.25,0,0,1,3.36.18q-.27,1.34-.55,2.67c-.48,2.32-1,4.72-1.41,7.1l-.08.5c-1,6.41-2,7.61-2.42,7.83a.1.1,0,0,1-.11,0,2.46,2.46,0,0,1-1-1.28c-1.85-4-2.29-8.17-2.76-12.59l-.09-.81c-.1-.93-.22-1.86-.34-2.78C26.89,20.21,27.55,20.06,28.22,19.93ZM25.11,59.29a19.36,19.36,0,0,1-5.23-2.21,22.1,22.1,0,0,1-9.44-13.93,20.35,20.35,0,0,1,0-10c1.13-4.07,3.93-7.25,8.57-9.7h0l.48-.26c.76,3.66,1.46,7.39,2.14,11l.08.42c.4,2.16.9,4.3,1.38,6.37,1.12,4.78,2.18,9.29,2.1,14.18Zm8.53.6C33,60,32.25,60,31.51,60a22.73,22.73,0,0,1-4.61-.35L27,55.21c.08-5.11-1.06-9.94-2.15-14.61-.48-2-1-4.17-1.37-6.28l-.08-.42c-.72-3.88-4-19.37-4.78-22.21-.18-.67-.11-.81-.09-.83a1.73,1.73,0,0,1,.41-.19l3.37-1.26.07,0v0c.82,3.42,1.48,6.93,2,10.42.17,1.17.3,2.36.44,3.53l.08.8c.48,4.58.94,8.9,2.91,13.15a3.93,3.93,0,0,0,1.9,2.19,1.87,1.87,0,0,0,1.69-.09c1.46-.81,2.45-3.54,3.33-9.12l.08-.46c.42-2.35.91-4.74,1.39-7,.25-1.2.5-2.4.74-3.6h0c.38-1.91.85-4.43,1.2-7a1.85,1.85,0,0,1,.15-.58l.1,0,4.56.84h0v0c-.55,2.74-3.86,19.08-3.86,19.08A78.19,78.19,0,0,1,36.28,42.6c-.14.37-.28.74-.42,1.12-.3.8-.62,1.62-.88,2.45C33.56,50.62,33.58,55.32,33.64,59.89ZM48,48.14a19.51,19.51,0,0,1-6.58,8.95,16.09,16.09,0,0,1-6,2.5c-.06-4.5,0-8.77,1.27-12.87.25-.79.55-1.58.84-2.35.14-.38.29-.76.43-1.14A79.62,79.62,0,0,0,40.84,31.9l1.81-9,.35.24a17.53,17.53,0,0,1,6.65,10.58A24.94,24.94,0,0,1,48,48.14Z"/></g></svg>