<svg id="Layer_1" data-name="Layer 1" xmlns="http://www.w3.org/2000/svg" xmlns:xlink="http://www.w3.org/1999/xlink" viewBox="0 0 32 32"><defs><style>.cls-1{fill:url(#New_Gradient_Swatch);}.cls-2{fill:#fff;}</style><linearGradient id="New_Gradient_Swatch" x1="16" y1="-1.01" x2="16" y2="28.07" gradientUnits="userSpaceOnUse"><stop offset="0.42" stop-color="#dcd7fb"/><stop offset="0.98" stop-color="#f6cfd3"/></linearGradient></defs><title>favicon_fondo_color</title><rect class="cls-1" width="32" height="32"/><path class="cls-2" d="M26.34,15.38A9.32,9.32,0,0,0,22.8,9.76l-.53-.37q.41-2,.81-4A.83.83,0,0,0,23,4.7a.81.81,0,0,0-.55-.3L20.2,4a.92.92,0,0,0-.34,0c-.27,0-.6.25-.7,1C19,6,18.82,7.1,18.65,8a9.65,9.65,0,0,0-1.88-.11c-.28,0-.55,0-.83.06s-.59.08-.93.14-.66.14-1,.22c-.24-1.59-.54-3.18-.91-4.72A.85.85,0,0,0,12.78,3,.84.84,0,0,0,12,3l-1.64.61a1.4,1.4,0,0,0-.43.23l-.11.11a1.24,1.24,0,0,0-.11,1.12c.37,1.35.73,2.83,1.09,4.51l-.5.28h0a8.51,8.51,0,0,0-4.56,5.2,10.68,10.68,0,0,0,0,5.23,11.53,11.53,0,0,0,4.94,7.26,10.26,10.26,0,0,0,3,1.24l.29.07a11.89,11.89,0,0,0,2.47.26h.32A11.5,11.5,0,0,0,18.28,29,8.78,8.78,0,0,0,22,27.52a10.25,10.25,0,0,0,3.47-4.7A12.9,12.9,0,0,0,26.34,15.38Zm-11.2-6.6c.33-.06.62-.1.88-.13s.51-.05.77-.06a9,9,0,0,1,1.71.1L18.23,10c-.24,1.13-.48,2.3-.68,3.46l0,.24c-.47,3-1,3.71-1.21,3.85a.11.11,0,0,1-.11,0,1.24,1.24,0,0,1-.5-.66,18.81,18.81,0,0,1-1.34-6.12l0-.39c-.05-.47-.11-.94-.17-1.41C14.46,8.92,14.8,8.84,15.14,8.78ZM11.08,26.92a10.78,10.78,0,0,1-4.61-6.8,9.93,9.93,0,0,1,0-4.87,7.7,7.7,0,0,1,4.19-4.75l-.17-.33.17.33.31-.17c.38,1.84.73,3.71,1.07,5.52l0,.11c.19,1,.43,2.08.67,3.09a27.89,27.89,0,0,1,1,6.89l0,2.07A9.48,9.48,0,0,1,11.08,26.92Zm5.68,1.45a11.19,11.19,0,0,1-2.31-.18l0-2.24a28.9,28.9,0,0,0-1-7.07c-.23-1-.47-2-.66-3.05l0-.11c-.37-2-.75-4-1.18-6-.39-1.81-.76-3.38-1.16-4.82,0-.09-.1-.38,0-.47a.84.84,0,0,1,.22-.11l1.64-.61.1,0,0,.08c.4,1.66.72,3.36,1,5.06.08.57.15,1.14.21,1.71l0,.39A19.38,19.38,0,0,0,15,17.24a1.85,1.85,0,0,0,.89,1,.84.84,0,0,0,.76,0c.87-.48,1.3-2.59,1.58-4.38l0-.23c.2-1.15.45-2.31.68-3.43.12-.58.24-1.15.36-1.73.18-.92.41-2.15.58-3.4a.74.74,0,0,1,.1-.34h.1l2.21.41h.07v.09q-.43,2.13-.86,4.26l-1,5a38.1,38.1,0,0,1-1.36,5.37l-.2.54c-.15.39-.3.79-.43,1.19a20.92,20.92,0,0,0-.65,6.69C17.5,28.33,17.14,28.36,16.76,28.37Zm8.08-5.82a9.53,9.53,0,0,1-3.21,4.37,7.9,7.9,0,0,1-3,1.24,20,20,0,0,1,.62-6.34c.12-.38.27-.77.41-1.15l.21-.55a38.66,38.66,0,0,0,1.39-5.48l.9-4.45.26.17a8.57,8.57,0,0,1,3.25,5.17A12.16,12.16,0,0,1,24.83,22.55Z"/></svg>