<svg id="Layer_1" data-name="Layer 1" xmlns="http://www.w3.org/2000/svg" viewBox="0 0 92.92 106.42"><defs><style>.cls-1{fill:#fff;}</style></defs><title>paz_blanco</title><path class="cls-1" d="M67.79,41.27a19.22,19.22,0,0,0-7.31-11.58c-.42-.31-.77-.54-1.09-.76q.84-4.14,1.68-8.29a1.71,1.71,0,0,0-.2-1.38,1.67,1.67,0,0,0-1.14-.61l-4.61-.85a1.89,1.89,0,0,0-.7,0c-.55.1-1.25.53-1.44,2-.3,2.23-.7,4.42-1,6.19a19.9,19.9,0,0,0-3.88-.24c-.58,0-1.14.06-1.71.13s-1.21.16-1.92.29-1.37.28-2,.45c-.49-3.28-1.11-6.55-1.87-9.73a1.74,1.74,0,0,0-.69-1.15,1.72,1.72,0,0,0-1.6,0L34.85,17a2.89,2.89,0,0,0-.88.47,1.48,1.48,0,0,0-.24.23A2.55,2.55,0,0,0,33.52,20c.77,2.78,1.5,5.84,2.25,9.3l-1,.58h0c-5,2.65-8.15,6.26-9.39,10.73a22,22,0,0,0,0,10.79,23.77,23.77,0,0,0,10.19,15,21.15,21.15,0,0,0,6.19,2.55l.6.15a24.52,24.52,0,0,0,5.1.53h.66a23.71,23.71,0,0,0,3.11-.27,18.11,18.11,0,0,0,7.76-3,21.13,21.13,0,0,0,7.16-9.69A26.6,26.6,0,0,0,67.79,41.27ZM44.7,27.66c.68-.13,1.27-.22,1.82-.27s1-.1,1.59-.12a18.53,18.53,0,0,1,3.53.21q-.28,1.39-.57,2.79c-.49,2.33-1,4.74-1.41,7.13l-.08.49c-1,6.24-2,7.65-2.49,7.93a.23.23,0,0,1-.23,0,2.55,2.55,0,0,1-1-1.35c-1.86-4-2.3-8.19-2.77-12.63L43,31c-.11-1-.23-1.94-.36-2.9C43.29,28,44,27.8,44.7,27.66Zm-8.39,37.4a22.24,22.24,0,0,1-9.5-14,20.48,20.48,0,0,1,0-10c1.14-4.11,4-7.31,8.64-9.79l-.36-.67.36.67.64-.35c.79,3.79,1.52,7.64,2.21,11.39l0,.23c.4,2.16.9,4.29,1.38,6.36,1.12,4.78,2.18,9.3,2.11,14.21l-.08,4.27A19.54,19.54,0,0,1,36.31,65.06Zm11.71,3a23.07,23.07,0,0,1-4.76-.36l.09-4.61c.08-5.09-1.05-9.92-2.15-14.58-.48-2-1-4.17-1.37-6.29l0-.23c-.76-4.09-1.54-8.32-2.42-12.45-.79-3.73-1.58-7-2.39-9.94-.05-.19-.21-.78,0-1a1.73,1.73,0,0,1,.45-.22l3.37-1.26.21-.07,0,.17c.82,3.41,1.48,6.92,2,10.44.16,1.17.3,2.36.44,3.53l.09.81c.48,4.56.94,8.87,2.9,13.1a3.81,3.81,0,0,0,1.83,2.12,1.74,1.74,0,0,0,1.57-.08c1.79-1,2.68-5.35,3.26-9l.08-.47c.42-2.36.92-4.76,1.4-7.08.25-1.19.5-2.38.74-3.57.38-1.91.85-4.43,1.2-7a1.52,1.52,0,0,1,.21-.7l.21,0,4.56.84.13,0c0,.07,0,.15,0,.18q-.88,4.39-1.78,8.78l-2.08,10.3a78.55,78.55,0,0,1-2.8,11.08l-.42,1.11c-.3.8-.62,1.62-.88,2.46-1.43,4.47-1.4,9.2-1.34,13.8C49.56,68,48.81,68,48,68.05Zm16.66-12a19.64,19.64,0,0,1-6.62,9,16.29,16.29,0,0,1-6.25,2.55c-.06-4.4-.06-8.92,1.27-13.08.25-.79.55-1.6.85-2.37.14-.37.29-.75.43-1.13a79.72,79.72,0,0,0,2.86-11.29l1.85-9.18.53.36A17.67,17.67,0,0,1,66.3,41.58,25.08,25.08,0,0,1,64.68,56.05Z"/><path class="cls-1" d="M39.15,75.22H36.66a.57.57,0,0,0-.57.57v4.94h0v2.63a.57.57,0,1,0,1.14,0V81.3l1.9,0a4.11,4.11,0,0,0,2.72-1,2.81,2.81,0,0,0,.83-2.11,2.76,2.76,0,0,0-.83-2.09A4,4,0,0,0,39.15,75.22Zm1.91,4.27a3,3,0,0,1-1.91.64l-1.91,0V76.37h2a2.91,2.91,0,0,1,1.88.59,1.64,1.64,0,0,1,.47,1.26A1.69,1.69,0,0,1,41.06,79.49Z"/><path class="cls-1" d="M48.06,75.58a.57.57,0,0,0-.53-.35h0a.57.57,0,0,0-.53.35l-3.22,7.57a.57.57,0,0,0,1.05.45l1-2.33H49.2l1,2.33a.57.57,0,0,0,.53.35.56.56,0,0,0,.22,0,.57.57,0,0,0,.31-.75Zm-1.74,4.54,1.21-2.85,1.19,2.85Z"/><path class="cls-1" d="M59,82.79H54.29l5.16-6.65a.57.57,0,0,0-.45-.92H53.12a.57.57,0,0,0,0,1.15h4.71L52.67,83a.57.57,0,0,0,.45.92H59a.57.57,0,0,0,0-1.15Z"/></svg>