<svg id="Layer_1" data-name="Layer 1" xmlns="http://www.w3.org/2000/svg" viewBox="0 0 92.92 106.42"><defs><style>.cls-1{fill:#fff;}.cls-2{fill:#c1b8f8;}</style></defs><title>paz_blanco_tronco_linea_lila</title><g id="_Group_" data-name="&lt;Group&gt;"><path class="cls-1" d="M66.21,41.43a25.94,25.94,0,0,1-1.66,14.91,20.53,20.53,0,0,1-6.89,9.35,17.45,17.45,0,0,1-7.43,2.86c-.07-4.84-.17-9.67,1.29-14.24.38-1.19.86-2.36,1.29-3.53a78.39,78.39,0,0,0,2.84-11.19c.22-1.09.44-2.17.66-3.26.47-2.35,1-4.69,1.42-7,.51.32,1,.66,1.5,1A18.41,18.41,0,0,1,66.21,41.43Z"/><path class="cls-1" d="M51.72,26.86C51,30.41,50.21,34,49.58,37.52c-.23,1.28-1.36,10.06-3.86,9a3.17,3.17,0,0,1-1.43-1.73c-2-4.37-2.41-8.95-2.92-13.68-.12-1.19-.27-2.38-.44-3.56q1.39-.39,2.81-.65c.61-.12,1.24-.22,1.86-.28s1.1-.11,1.65-.12A19.29,19.29,0,0,1,51.72,26.86Z"/><path class="cls-1" d="M38.26,42.35c1.29,7,3.62,13.5,3.51,20.72l0,1.19c0,1.3,0,2.6-.08,3.91l0,.14a20.41,20.41,0,0,1-6.54-2.59c-5.1-3.15-8.5-8.65-9.85-14.49a21.29,21.29,0,0,1,0-10.42c1.33-4.78,4.74-8,9-10.26.54-.28,1-.57,1.54-.86C36.7,33.88,37.48,38.1,38.26,42.35Z"/><path class="cls-2" d="M49.47,68.56v-.3c-.07-4.72-.13-9.59,1.33-14.19.25-.77.53-1.53.82-2.29.16-.42.32-.85.47-1.27a77.91,77.91,0,0,0,2.8-11L56,33.83q.47-2.35.94-4.69.9-4.4,1.78-8.79c0-.08,0-.13,0-.17l-.13,0-4.56-.84-.2,0a1.46,1.46,0,0,0-.21.7c-.35,2.57-.82,5.1-1.2,7-.24,1.19-.49,2.38-.74,3.57-.48,2.32-1,4.72-1.4,7.08,0,.12,0,.29-.09.52-.62,3.89-1.49,8-3.26,9a1.74,1.74,0,0,1-1.57.08,3.82,3.82,0,0,1-1.82-2.12c-1.94-4.22-2.4-8.5-2.89-13l-.09-.88c-.12-1.18-.27-2.37-.44-3.53-.48-3.48-1.15-7-2-10.44l0-.17-.22.07L34.57,18.4a1.86,1.86,0,0,0-.46.22l-.07.08c-.09.12.07.7.12.9.85,3.1,1.63,6.35,2.39,9.94.94,4.38,1.79,9,2.47,12.68.39,2.11.89,4.22,1.37,6.26,1.1,4.67,2.23,9.5,2.16,14.61l0,1.19c0,1.3,0,2.61-.08,3.91l-1.53,0c0-1.3.06-2.6.08-3.9l0-1.19c.07-4.91-1-9.44-2.12-14.23-.48-2.06-1-4.19-1.38-6.33-.86-4.69-1.59-8.6-2.46-12.64-.75-3.56-1.53-6.78-2.37-9.85a2.54,2.54,0,0,1,.22-2.32L33,17.6l.16-.15A3,3,0,0,1,34,17l3.37-1.26a1.52,1.52,0,0,1,2.29,1.16c.84,3.5,1.51,7.06,2,10.59.17,1.19.32,2.39.44,3.58l.09.88c.47,4.41.92,8.57,2.76,12.56a2.59,2.59,0,0,0,1,1.35.23.23,0,0,0,.23,0c.51-.28,1.5-1.68,2.49-7.88,0-.24.07-.43.09-.55.42-2.38.92-4.79,1.41-7.12.25-1.19.49-2.37.73-3.56.37-1.89.85-4.39,1.19-6.92.2-1.48.89-1.9,1.44-2a1.85,1.85,0,0,1,.69,0l4.62.85a1.69,1.69,0,0,1,1.14.61,1.73,1.73,0,0,1,.19,1.41q-.88,4.38-1.77,8.77-.46,2.34-.94,4.69l-1.13,5.6A79.25,79.25,0,0,1,53.52,51c-.16.43-.32.86-.48,1.3-.28.73-.55,1.46-.79,2.21-1.38,4.36-1.32,9.11-1.25,13.7v.3Z"/><path class="cls-1" d="M46.57,69.59A24,24,0,0,1,41.47,69a21.13,21.13,0,0,1-6.78-2.68,23.76,23.76,0,0,1-10.19-15,21.82,21.82,0,0,1,0-10.79c1.24-4.48,4.4-8.09,9.39-10.73l.71,1.35C29.94,33.7,27.12,36.9,26,41a20.6,20.6,0,0,0,0,10,22.22,22.22,0,0,0,9.51,14,19.62,19.62,0,0,0,6.3,2.49,22.68,22.68,0,0,0,5.41.5,22.24,22.24,0,0,0,2.91-.26,16.59,16.59,0,0,0,7.11-2.73,19.55,19.55,0,0,0,6.62-9,25,25,0,0,0,1.62-14.47,17.67,17.67,0,0,0-6.7-10.66c-.39-.29-.91-.66-1.45-1l-.17-.12L58,28.55l.15.1c.56.34,1.11.74,1.53,1A19.2,19.2,0,0,1,67,41.27a26.53,26.53,0,0,1-1.7,15.36,21,21,0,0,1-7.16,9.69,18.1,18.1,0,0,1-7.75,3,23.71,23.71,0,0,1-3.11.27Z"/><path class="cls-1" d="M41.13,28.3l-.41-1.47c.95-.26,1.91-.48,2.88-.66.7-.13,1.33-.23,1.92-.29s1.13-.11,1.71-.13a20,20,0,0,1,4.64.36l-.29,1.5a18.52,18.52,0,0,0-4.29-.33c-.54,0-1.07.06-1.59.12s-1.14.15-1.81.27C43,27.83,42,28,41.13,28.3Z"/><path class="cls-1" d="M34.61,31.22l-.71-1.35c.53-.28,1-.56,1.51-.85l.51.59L35.53,29l.43.63.38.66-.24.13C35.68,30.64,35.16,30.94,34.61,31.22Z"/></g><path class="cls-1" d="M38.34,75.22H35.85a.57.57,0,0,0-.57.57v4.94h0v2.63a.57.57,0,1,0,1.14,0V81.3l1.9,0a4.11,4.11,0,0,0,2.72-1,2.81,2.81,0,0,0,.83-2.11A2.76,2.76,0,0,0,41,76.12,4,4,0,0,0,38.34,75.22Zm1.91,4.27a3,3,0,0,1-1.91.64l-1.91,0V76.37h2a2.91,2.91,0,0,1,1.88.59,1.64,1.64,0,0,1,.47,1.26A1.69,1.69,0,0,1,40.24,79.49Z"/><path class="cls-1" d="M47.24,75.58a.57.57,0,0,0-.53-.35h0a.57.57,0,0,0-.53.35L43,83.14a.57.57,0,0,0,1.05.45l1-2.33h3.37l1,2.33a.57.57,0,0,0,.53.35.56.56,0,0,0,.22,0,.57.57,0,0,0,.31-.75ZM45.5,80.11l1.21-2.85,1.19,2.85Z"/><path class="cls-1" d="M58.19,82.79H53.48l5.16-6.65a.57.57,0,0,0-.45-.92H52.31a.57.57,0,0,0,0,1.15H57L51.86,83a.57.57,0,0,0,.45.92h5.88a.57.57,0,0,0,0-1.15Z"/><path class="cls-2" d="M42.47,66.42l-1.53,0L41,63.06c.07-4.91-1-9.43-2.11-14.21-.49-2.07-1-4.2-1.38-6.36-1.36-7.36-2.76-15-4.83-22.49a2.54,2.54,0,0,1,.22-2.32,1.83,1.83,0,0,1,.2-.2A2.89,2.89,0,0,1,34,17l3.36-1.26a1.52,1.52,0,0,1,2.29,1.17A113.53,113.53,0,0,1,42.13,31l.09.82c.47,4.43.91,8.61,2.76,12.61a2.57,2.57,0,0,0,1,1.35.23.23,0,0,0,.23,0c.51-.28,1.51-1.69,2.49-7.92l.08-.5c.41-2.34.91-4.7,1.38-7,.72-3.47,1.47-7.06,2-10.62.2-1.47.89-1.9,1.44-2a2.07,2.07,0,0,1,.77,0l4.55.83a1.49,1.49,0,0,1,1.34,2q-1.35,6.74-2.72,13.47l-1.13,5.61A79.73,79.73,0,0,1,53.52,51c-.15.43-.32.85-.48,1.28-.28.74-.56,1.47-.8,2.23C50.87,58.87,50.9,61,51,65.52v.4l-1.53,0v-.4c-.06-4.59-.09-6.9,1.36-11.47.25-.78.54-1.56.83-2.31.16-.42.32-.84.47-1.26a78.61,78.61,0,0,0,2.81-11.08L56,33.83q1.36-6.74,2.72-13.47c0-.08,0-.13,0-.17l-.14,0-4.55-.83a.84.84,0,0,0-.21,0,1.71,1.71,0,0,0-.2.71c-.48,3.61-1.24,7.23-2,10.73-.47,2.27-1,4.62-1.37,6.94l-.08.47c-.58,3.68-1.47,8-3.26,9a1.74,1.74,0,0,1-1.57.08,3.8,3.8,0,0,1-1.83-2.12c-2-4.23-2.41-8.54-2.9-13.09l-.09-.82a111.94,111.94,0,0,0-2.41-14c0-.07,0-.12,0-.17l-.22.07L34.57,18.4a1.73,1.73,0,0,0-.45.22c-.17.2,0,.79,0,1,2.08,7.58,3.49,15.23,4.85,22.62.39,2.12.89,4.23,1.37,6.28,1.09,4.67,2.23,9.49,2.15,14.59Z"/></svg>