<svg id="Layer_1" data-name="Layer 1" xmlns="http://www.w3.org/2000/svg" xmlns:xlink="http://www.w3.org/1999/xlink" viewBox="0 0 92.92 106.42"><defs><style>.cls-1{fill:none;}.cls-2{clip-path:url(#clip-path);}.cls-3{fill:#dcd7fb;}.cls-4{fill:#ddd7fa;}.cls-5{fill:#ddd7f9;}.cls-6{fill:#ded6f8;}.cls-7{fill:#dfd6f7;}.cls-8{fill:#dfd6f6;}.cls-9{fill:#e0d6f5;}.cls-10{fill:#e1d6f4;}.cls-11{fill:#e1d5f3;}.cls-12{fill:#e2d5f2;}.cls-13{fill:#e3d5f1;}.cls-14{fill:#e3d5f0;}.cls-15{fill:#e4d5ef;}.cls-16{fill:#e5d4ee;}.cls-17{fill:#e5d4ed;}.cls-18{fill:#e6d4ec;}.cls-19{fill:#e7d4eb;}.cls-20{fill:#e7d4ea;}.cls-21{fill:#e8d3e9;}.cls-22{fill:#e9d3e8;}.cls-23{fill:#e9d3e6;}.cls-24{fill:#ead3e5;}.cls-25{fill:#ebd2e4;}.cls-26{fill:#ebd2e3;}.cls-27{fill:#ecd2e2;}.cls-28{fill:#edd2e1;}.cls-29{fill:#edd2e0;}.cls-30{fill:#eed1df;}.cls-31{fill:#efd1de;}.cls-32{fill:#efd1dd;}.cls-33{fill:#f0d1dc;}.cls-34{fill:#f1d1db;}.cls-35{fill:#f1d0da;}.cls-36{fill:#f2d0d9;}.cls-37{fill:#f3d0d8;}.cls-38{fill:#f3d0d7;}.cls-39{fill:#f4d0d6;}.cls-40{fill:#f5cfd5;}.cls-41{fill:#f5cfd4;}.cls-42{fill:#f6cfd3;}.cls-43{fill:#c1b8f8;}</style><clipPath id="clip-path"><path class="cls-1" d="M59.32,29.29l-1.42,7c-.22,1.09-.44,2.17-.66,3.26a79.49,79.49,0,0,1-2.83,11.19C54,52,53.5,53.11,53.11,54.31c-1.45,4.57-1.35,9.41-1.29,14.24a22.93,22.93,0,0,1-3,.27,23.84,23.84,0,0,1-5.58-.51h0l0-.14c0-1.3.06-2.6.08-3.91l0-1.19c.11-7.22-2.22-13.76-3.51-20.72-.78-4.25-1.56-8.47-2.46-12.66-.7-3.31-1.48-6.61-2.38-9.89a1.81,1.81,0,0,1,.07-1.63l.12-.12a2.22,2.22,0,0,1,.68-.36l3.37-1.26a.79.79,0,0,1,1.28.63q1.24,5.2,2,10.51c.17,1.18.31,2.37.44,3.56.51,4.73.9,9.31,2.92,13.68a3.14,3.14,0,0,0,1.43,1.73c2.5,1.05,3.63-7.73,3.86-9,.63-3.57,1.43-7.11,2.14-10.67.46-2.31.88-4.64,1.19-7,.07-.56.27-1.25.82-1.35a1.4,1.4,0,0,1,.49,0l4.55.84a1,1,0,0,1,.66.31,1,1,0,0,1,.07.8Q60.21,24.89,59.32,29.29Z"/></clipPath></defs><title>paz_lila_tronco_color</title><g id="_Group_" data-name="&lt;Group&gt;"><g class="cls-2"><rect class="cls-3" x="34.73" y="16.2" width="11.16" height="52.67"/><rect class="cls-3" x="45.9" y="16.2" width="0.37" height="52.67"/><rect class="cls-4" x="46.27" y="16.2" width="0.37" height="52.67"/><rect class="cls-5" x="46.63" y="16.2" width="0.37" height="52.67"/><rect class="cls-6" x="47" y="16.2" width="0.37" height="52.67"/><rect class="cls-7" x="47.37" y="16.2" width="0.37" height="52.67"/><rect class="cls-8" x="47.73" y="16.2" width="0.37" height="52.67"/><rect class="cls-9" x="48.1" y="16.2" width="0.37" height="52.67"/><rect class="cls-10" x="48.47" y="16.2" width="0.37" height="52.67"/><rect class="cls-11" x="48.84" y="16.2" width="0.37" height="52.67"/><rect class="cls-12" x="49.2" y="16.2" width="0.37" height="52.67"/><rect class="cls-13" x="49.57" y="16.2" width="0.37" height="52.67"/><rect class="cls-14" x="49.94" y="16.2" width="0.37" height="52.67"/><rect class="cls-15" x="50.3" y="16.2" width="0.37" height="52.67"/><rect class="cls-16" x="50.67" y="16.2" width="0.37" height="52.67"/><rect class="cls-17" x="51.04" y="16.2" width="0.37" height="52.67"/><rect class="cls-18" x="51.4" y="16.2" width="0.37" height="52.67"/><rect class="cls-19" x="51.77" y="16.2" width="0.37" height="52.67"/><rect class="cls-20" x="52.14" y="16.2" width="0.37" height="52.67"/><rect class="cls-21" x="52.51" y="16.2" width="0.37" height="52.67"/><rect class="cls-22" x="52.87" y="16.2" width="0.37" height="52.67"/><rect class="cls-23" x="53.24" y="16.2" width="0.37" height="52.67"/><rect class="cls-24" x="53.61" y="16.2" width="0.37" height="52.67"/><rect class="cls-25" x="53.97" y="16.2" width="0.37" height="52.67"/><rect class="cls-26" x="54.34" y="16.2" width="0.37" height="52.67"/><rect class="cls-27" x="54.71" y="16.2" width="0.37" height="52.67"/><rect class="cls-28" x="55.07" y="16.2" width="0.37" height="52.67"/><rect class="cls-29" x="55.44" y="16.2" width="0.37" height="52.67"/><rect class="cls-30" x="55.81" y="16.2" width="0.37" height="52.67"/><rect class="cls-31" x="56.18" y="16.2" width="0.37" height="52.67"/><rect class="cls-32" x="56.54" y="16.2" width="0.37" height="52.67"/><rect class="cls-33" x="56.91" y="16.2" width="0.37" height="52.67"/><rect class="cls-34" x="57.28" y="16.2" width="0.37" height="52.67"/><rect class="cls-35" x="57.64" y="16.2" width="0.37" height="52.67"/><rect class="cls-36" x="58.01" y="16.2" width="0.37" height="52.67"/><rect class="cls-37" x="58.38" y="16.2" width="0.37" height="52.67"/><rect class="cls-38" x="58.75" y="16.2" width="0.37" height="52.67"/><rect class="cls-39" x="59.11" y="16.2" width="0.37" height="52.67"/><rect class="cls-40" x="59.48" y="16.2" width="0.37" height="52.67"/><rect class="cls-41" x="59.85" y="16.2" width="0.37" height="52.67"/><rect class="cls-42" x="60.21" y="16.2" width="0.37" height="52.67"/><rect class="cls-42" x="60.58" y="16.2" width="0.61" height="52.67"/></g><path class="cls-43" d="M51.06,68.56v-.3c-.07-4.72-.13-9.59,1.33-14.19.26-.82.57-1.63.87-2.41.15-.39.29-.77.44-1.16a79,79,0,0,0,2.78-11l2.1-10.39q.9-4.39,1.77-8.78s0-.11,0-.18l-.13,0-4.56-.84-.2,0h0a1.58,1.58,0,0,0-.21.7c-.35,2.59-.83,5.11-1.2,7-.24,1.19-.49,2.38-.74,3.57-.48,2.32-1,4.72-1.4,7.08l-.07.46c-.86,5.47-1.87,8.26-3.26,9a1.73,1.73,0,0,1-1.57.08,3.81,3.81,0,0,1-1.83-2.12c-2-4.23-2.41-8.54-2.9-13.1l-.09-.81c-.13-1.17-.27-2.36-.44-3.53-.5-3.51-1.16-7-2-10.44l0-.17-.21.07L36.17,18.4a1.73,1.73,0,0,0-.45.22c-.17.19,0,.76,0,1,.82,3,1.6,6.21,2.39,9.94.87,4.06,1.63,8.15,2.46,12.69.39,2.11.88,4.22,1.36,6.26,1.1,4.67,2.23,9.5,2.16,14.61l-.1,5.1-1.53,0,.1-5.09c.07-4.92-1-9.44-2.12-14.24-.48-2.06-1-4.19-1.38-6.33-.83-4.53-1.59-8.6-2.45-12.64-.79-3.69-1.56-6.91-2.37-9.85a2.52,2.52,0,0,1,.22-2.32,1.47,1.47,0,0,1,.23-.23,2.89,2.89,0,0,1,.88-.47L39,15.71a1.72,1.72,0,0,1,1.6,0,1.74,1.74,0,0,1,.69,1.15c.83,3.45,1.5,7,2,10.57.17,1.18.31,2.39.44,3.58l.09.81c.47,4.43.91,8.62,2.77,12.63a2.55,2.55,0,0,0,1,1.35.22.22,0,0,0,.23,0c.51-.28,1.51-1.69,2.5-7.94l.08-.49c.42-2.39.92-4.8,1.41-7.13.25-1.19.49-2.37.73-3.56.37-1.88.84-4.37,1.19-6.92.2-1.48.89-1.9,1.44-2a1.86,1.86,0,0,1,.69,0l4.62.85a1.67,1.67,0,0,1,1.14.61,1.71,1.71,0,0,1,.2,1.38q-.89,4.41-1.78,8.79L58,39.74A80.63,80.63,0,0,1,55.13,51l-.45,1.18c-.29.76-.59,1.55-.84,2.33-1.38,4.36-1.32,9.11-1.25,13.7v.3Z"/><path class="cls-43" d="M48.17,69.59a24.53,24.53,0,0,1-5.1-.53l-.6-.14a21,21,0,0,1-6.19-2.55,23.77,23.77,0,0,1-10.19-15,21.93,21.93,0,0,1,0-10.79c1.24-4.47,4.4-8.08,9.39-10.73l.71,1.35c-4.67,2.48-7.5,5.68-8.64,9.79a20.4,20.4,0,0,0,0,10,22.24,22.24,0,0,0,9.5,14,19.62,19.62,0,0,0,6.31,2.49l.61.13a23.24,23.24,0,0,0,4.8.37,22.24,22.24,0,0,0,2.91-.26,16.62,16.62,0,0,0,7.12-2.73,19.67,19.67,0,0,0,6.62-9,25,25,0,0,0,1.61-14.47,17.62,17.62,0,0,0-6.7-10.66c-.48-.35-1-.69-1.45-1l-.17-.11.85-1.27.15.1c.43.27.92.6,1.52,1a19.16,19.16,0,0,1,7.3,11.58,26.51,26.51,0,0,1-1.69,15.35,21.15,21.15,0,0,1-7.16,9.69,18.12,18.12,0,0,1-7.76,3,23.71,23.71,0,0,1-3.11.27Z"/><path class="cls-43" d="M42.74,28.3l-.41-1.47c.93-.26,1.89-.48,2.87-.66.72-.13,1.35-.23,1.92-.29s1.13-.11,1.71-.13a19.92,19.92,0,0,1,4.63.36l-.29,1.5a18.48,18.48,0,0,0-4.29-.33c-.54,0-1.06.06-1.59.12s-1.14.15-1.82.27C44.54,27.84,43.62,28,42.74,28.3Z"/><path class="cls-43" d="M36.22,31.22l-.72-1.35,1-.56.62-.35L38,30.23l-.73.42Z"/></g><path class="cls-43" d="M40,75.22H37.55a.57.57,0,0,0-.57.57v4.94h0v2.63a.57.57,0,1,0,1.14,0V81.3l1.9,0a4.09,4.09,0,0,0,2.72-1,2.81,2.81,0,0,0,.83-2.11,2.76,2.76,0,0,0-.83-2.09A4,4,0,0,0,40,75.22ZM42,79.49a3,3,0,0,1-1.91.64l-1.91,0V76.37h2A2.94,2.94,0,0,1,42,77a1.64,1.64,0,0,1,.47,1.26A1.69,1.69,0,0,1,42,79.49Z"/><path class="cls-43" d="M49,75.58a.57.57,0,0,0-.53-.35h0a.57.57,0,0,0-.53.35l-3.22,7.57a.57.57,0,0,0,1.05.45l1-2.33h3.37l1,2.33a.57.57,0,0,0,.53.35.56.56,0,0,0,.22,0,.57.57,0,0,0,.31-.75Zm-1.74,4.54,1.21-2.85,1.19,2.85Z"/><path class="cls-43" d="M59.89,82.79H55.19l5.16-6.65a.57.57,0,0,0-.45-.92H54a.57.57,0,0,0,0,1.15h4.71L53.56,83a.57.57,0,0,0,.45.92h5.88a.57.57,0,0,0,0-1.15Z"/></svg>