<svg id="Layer_1" data-name="Layer 1" xmlns="http://www.w3.org/2000/svg" xmlns:xlink="http://www.w3.org/1999/xlink" viewBox="0 0 92.92 106.42"><defs><style>.cls-1{fill:none;}.cls-2{clip-path:url(#clip-path);}.cls-3{fill:#dcd7fb;}.cls-4{fill:#ddd7fa;}.cls-5{fill:#ddd7f9;}.cls-6{fill:#ded6f8;}.cls-7{fill:#dfd6f7;}.cls-8{fill:#dfd6f6;}.cls-9{fill:#e0d6f5;}.cls-10{fill:#e1d6f4;}.cls-11{fill:#e1d5f3;}.cls-12{fill:#e2d5f2;}.cls-13{fill:#e3d5f1;}.cls-14{fill:#e3d5f0;}.cls-15{fill:#e4d5ef;}.cls-16{fill:#e5d4ee;}.cls-17{fill:#e5d4ed;}.cls-18{fill:#e6d4ec;}.cls-19{fill:#e7d4eb;}.cls-20{fill:#e7d4ea;}.cls-21{fill:#e8d3e9;}.cls-22{fill:#e9d3e8;}.cls-23{fill:#e9d3e6;}.cls-24{fill:#ead3e5;}.cls-25{fill:#ebd2e4;}.cls-26{fill:#ebd2e3;}.cls-27{fill:#ecd2e2;}.cls-28{fill:#edd2e1;}.cls-29{fill:#edd2e0;}.cls-30{fill:#eed1df;}.cls-31{fill:#efd1de;}.cls-32{fill:#efd1dd;}.cls-33{fill:#f0d1dc;}.cls-34{fill:#f1d1db;}.cls-35{fill:#f1d0da;}.cls-36{fill:#f2d0d9;}.cls-37{fill:#f3d0d8;}.cls-38{fill:#f3d0d7;}.cls-39{fill:#f4d0d6;}.cls-40{fill:#f5cfd5;}.cls-41{fill:#f5cfd4;}.cls-42{fill:#f6cfd3;}.cls-43{fill:#fff;}</style><clipPath id="clip-path"><path class="cls-1" d="M58.55,29.29l-1.42,7c-.22,1.09-.44,2.17-.66,3.26a78.36,78.36,0,0,1-2.83,11.19c-.43,1.18-.91,2.34-1.29,3.53-1.46,4.57-1.36,9.41-1.29,14.24a22.93,22.93,0,0,1-3,.27,23.84,23.84,0,0,1-5.58-.51h0l0-.14c0-1.3.06-2.6.08-3.91l0-1.19c.11-7.22-2.22-13.76-3.5-20.72-.79-4.25-1.57-8.47-2.46-12.66-.7-3.31-1.48-6.61-2.38-9.89a1.84,1.84,0,0,1,.07-1.63l.12-.12a2.22,2.22,0,0,1,.68-.36l3.37-1.26a.79.79,0,0,1,1.28.63q1.24,5.2,2,10.51c.17,1.18.31,2.37.44,3.56.51,4.73.9,9.31,2.92,13.68a3.14,3.14,0,0,0,1.43,1.73c2.5,1.05,3.63-7.73,3.86-9C51,34,51.83,30.41,52.54,26.86c.46-2.31.88-4.64,1.19-7,.07-.56.27-1.25.82-1.35a1.38,1.38,0,0,1,.49,0l4.55.84a1,1,0,0,1,.66.31,1,1,0,0,1,.07.8Q59.44,24.89,58.55,29.29Z"/></clipPath></defs><title>paz_blanco_tronco_color</title><g id="_Group_" data-name="&lt;Group&gt;"><g class="cls-2"><rect class="cls-3" x="33.97" y="16.2" width="11.16" height="52.67"/><rect class="cls-3" x="45.13" y="16.2" width="0.37" height="52.67"/><rect class="cls-4" x="45.5" y="16.2" width="0.37" height="52.67"/><rect class="cls-5" x="45.86" y="16.2" width="0.37" height="52.67"/><rect class="cls-6" x="46.23" y="16.2" width="0.37" height="52.67"/><rect class="cls-7" x="46.6" y="16.2" width="0.37" height="52.67"/><rect class="cls-8" x="46.96" y="16.2" width="0.37" height="52.67"/><rect class="cls-9" x="47.33" y="16.2" width="0.37" height="52.67"/><rect class="cls-10" x="47.7" y="16.2" width="0.37" height="52.67"/><rect class="cls-11" x="48.06" y="16.2" width="0.37" height="52.67"/><rect class="cls-12" x="48.43" y="16.2" width="0.37" height="52.67"/><rect class="cls-13" x="48.8" y="16.2" width="0.37" height="52.67"/><rect class="cls-14" x="49.16" y="16.2" width="0.37" height="52.67"/><rect class="cls-15" x="49.53" y="16.2" width="0.37" height="52.67"/><rect class="cls-16" x="49.9" y="16.2" width="0.37" height="52.67"/><rect class="cls-17" x="50.27" y="16.2" width="0.37" height="52.67"/><rect class="cls-18" x="50.63" y="16.2" width="0.37" height="52.67"/><rect class="cls-19" x="51" y="16.2" width="0.37" height="52.67"/><rect class="cls-20" x="51.37" y="16.2" width="0.37" height="52.67"/><rect class="cls-21" x="51.73" y="16.2" width="0.37" height="52.67"/><rect class="cls-22" x="52.1" y="16.2" width="0.37" height="52.67"/><rect class="cls-23" x="52.47" y="16.2" width="0.37" height="52.67"/><rect class="cls-24" x="52.83" y="16.2" width="0.37" height="52.67"/><rect class="cls-25" x="53.2" y="16.2" width="0.37" height="52.67"/><rect class="cls-26" x="53.57" y="16.2" width="0.37" height="52.67"/><rect class="cls-27" x="53.94" y="16.2" width="0.37" height="52.67"/><rect class="cls-28" x="54.3" y="16.2" width="0.37" height="52.67"/><rect class="cls-29" x="54.67" y="16.2" width="0.37" height="52.67"/><rect class="cls-30" x="55.04" y="16.2" width="0.37" height="52.67"/><rect class="cls-31" x="55.4" y="16.2" width="0.37" height="52.67"/><rect class="cls-32" x="55.77" y="16.2" width="0.37" height="52.67"/><rect class="cls-33" x="56.14" y="16.2" width="0.37" height="52.67"/><rect class="cls-34" x="56.5" y="16.2" width="0.37" height="52.67"/><rect class="cls-35" x="56.87" y="16.2" width="0.37" height="52.67"/><rect class="cls-36" x="57.24" y="16.2" width="0.37" height="52.67"/><rect class="cls-37" x="57.61" y="16.2" width="0.37" height="52.67"/><rect class="cls-38" x="57.97" y="16.2" width="0.37" height="52.67"/><rect class="cls-39" x="58.34" y="16.2" width="0.37" height="52.67"/><rect class="cls-40" x="58.71" y="16.2" width="0.37" height="52.67"/><rect class="cls-41" x="59.07" y="16.2" width="0.37" height="52.67"/><rect class="cls-42" x="59.44" y="16.2" width="0.37" height="52.67"/><rect class="cls-42" x="59.81" y="16.2" width="0.61" height="52.67"/></g><path class="cls-43" d="M42,28.3l-.41-1.47c.93-.26,1.89-.48,2.87-.66.72-.13,1.35-.23,1.92-.29s1.13-.11,1.71-.13a19.93,19.93,0,0,1,4.63.36l-.3,1.5a18.46,18.46,0,0,0-4.28-.33c-.53,0-1.07.06-1.59.12s-1.14.15-1.82.27C43.77,27.84,42.85,28,42,28.3Z"/><path class="cls-43" d="M67.79,41.27a19.21,19.21,0,0,0-7.31-11.58c-.41-.3-.76-.54-1.09-.76q.84-4.14,1.68-8.29a1.71,1.71,0,0,0-.2-1.38,1.67,1.67,0,0,0-1.14-.61l-4.61-.85a1.89,1.89,0,0,0-.7,0c-.55.1-1.24.52-1.44,2-.34,2.55-.82,5-1.19,6.92-.24,1.2-.49,2.39-.74,3.58-.48,2.32-1,4.72-1.4,7.1l-.08.49c-1,6.24-2,7.65-2.49,7.93a.23.23,0,0,1-.23,0,2.55,2.55,0,0,1-1-1.35c-1.86-4-2.3-8.2-2.77-12.63L43,31c-.13-1.19-.28-2.4-.44-3.58-.5-3.55-1.17-7.11-2-10.57a1.75,1.75,0,0,0-.69-1.15,1.72,1.72,0,0,0-1.6,0L34.85,17a2.88,2.88,0,0,0-.89.48,1.56,1.56,0,0,0-.23.23A2.54,2.54,0,0,0,33.52,20c.77,2.78,1.5,5.84,2.25,9.3l-1,.58h0c-5,2.65-8.15,6.26-9.39,10.73a22,22,0,0,0,0,10.79,23.78,23.78,0,0,0,10.19,15,21.15,21.15,0,0,0,6.19,2.55l.6.15a24.53,24.53,0,0,0,5.1.53h.66a23.71,23.71,0,0,0,3.11-.27,18.13,18.13,0,0,0,7.76-3,21.13,21.13,0,0,0,7.16-9.69A26.6,26.6,0,0,0,67.79,41.27ZM36.31,65.06a22.24,22.24,0,0,1-9.5-14,20.49,20.49,0,0,1,0-10c1.14-4.11,4-7.31,8.64-9.79l-.36-.67.36.67.64-.35c.78,3.72,1.49,7.51,2.17,11.2l.08.42c.4,2.16.9,4.29,1.38,6.36,1.12,4.78,2.18,9.3,2.11,14.21l-.08,4.27A19.54,19.54,0,0,1,36.31,65.06Zm11.71,3a23.1,23.1,0,0,1-4.76-.36l.09-4.61c.08-5.09-1.05-9.92-2.15-14.58-.48-2-1-4.17-1.37-6.29l-.08-.42c-.75-4-1.52-8.19-2.39-12.26-.79-3.73-1.58-7-2.39-9.94-.05-.19-.21-.78,0-1a1.75,1.75,0,0,1,.45-.22l3.37-1.26.21-.07a1.72,1.72,0,0,1,0,.17c.82,3.43,1.48,6.94,2,10.44.17,1.17.3,2.36.44,3.53l.09.8c.48,4.56.94,8.88,2.9,13.11a3.81,3.81,0,0,0,1.83,2.12,1.74,1.74,0,0,0,1.57-.08c1.79-1,2.68-5.35,3.26-9l.08-.47c.42-2.35.91-4.74,1.4-7.05.25-1.2.5-2.4.74-3.6.38-1.91.85-4.43,1.2-7a1.53,1.53,0,0,1,.21-.71l.21,0,4.56.84.14,0c0,.07,0,.15,0,.18q-.88,4.39-1.78,8.78l-2.08,10.3a78.39,78.39,0,0,1-2.8,11.08l-.42,1.12c-.3.79-.62,1.61-.87,2.44-1.43,4.47-1.4,9.2-1.34,13.8C49.56,68,48.81,68,48,68.05Zm16.66-12a19.64,19.64,0,0,1-6.62,9,16.29,16.29,0,0,1-6.25,2.55c-.06-4.4-.06-8.92,1.27-13.08.25-.79.55-1.59.85-2.36.14-.38.29-.76.43-1.14a79.54,79.54,0,0,0,2.86-11.29l1.85-9.18.53.36A17.67,17.67,0,0,1,66.3,41.58,25.08,25.08,0,0,1,64.68,56.05Z"/></g><path class="cls-43" d="M39.15,75.22H36.66a.57.57,0,0,0-.57.57v4.94h0v2.63a.57.57,0,1,0,1.14,0V81.3l1.9,0a4.11,4.11,0,0,0,2.72-1,2.81,2.81,0,0,0,.83-2.11,2.76,2.76,0,0,0-.83-2.09A4,4,0,0,0,39.15,75.22Zm1.91,4.27a3,3,0,0,1-1.91.64l-1.91,0V76.37h2a2.91,2.91,0,0,1,1.88.59,1.64,1.64,0,0,1,.47,1.26A1.69,1.69,0,0,1,41.06,79.49Z"/><path class="cls-43" d="M48.06,75.58a.57.57,0,0,0-.53-.35h0a.57.57,0,0,0-.53.35l-3.22,7.57a.57.57,0,0,0,1.05.45l1-2.33H49.2l1,2.33a.57.57,0,0,0,.53.35.56.56,0,0,0,.22,0,.57.57,0,0,0,.31-.75Zm-1.74,4.54,1.21-2.85,1.19,2.85Z"/><path class="cls-43" d="M59,82.79H54.29l5.16-6.65a.57.57,0,0,0-.45-.92H53.13a.57.57,0,0,0,0,1.15h4.71L52.67,83a.57.57,0,0,0,.45.92H59a.57.57,0,0,0,0-1.15Z"/></svg>